<svg width="1119" height="175" viewBox="0 0 1119 175" fill="none" xmlns="http://www.w3.org/2000/svg">
<path d="M1118 87.5C1118 93.0762 1114.39 98.7152 1107.03 104.34C1099.69 109.948 1088.8 115.402 1074.68 120.621C1046.46 131.055 1005.57 140.471 954.972 148.384C853.787 164.208 713.966 174 559.5 174C405.034 174 265.213 164.208 164.028 148.384C113.428 140.471 72.5356 131.055 44.3151 120.621C30.1992 115.402 19.313 109.948 11.9743 104.34C4.61476 98.7152 1 93.0762 1 87.5C1 81.9238 4.61476 76.2848 11.9743 70.6602C19.313 65.0515 30.1992 59.5983 44.3151 54.379C72.5356 43.9446 113.428 34.5295 164.028 26.6161C265.213 10.792 405.034 1 559.5 1C713.966 1 853.787 10.792 954.972 26.6161C1005.57 34.5295 1046.46 43.9446 1074.68 54.379C1088.8 59.5983 1099.69 65.0515 1107.03 70.6602C1114.39 76.2848 1118 81.9238 1118 87.5Z" stroke="#4969ED" stroke-width="2"/>
</svg>
